<?xml version="1.0" standalone="no"?>
<!DOCTYPE svg PUBLIC "-//W3C//DTD SVG 20010904//EN"
 "http://www.w3.org/TR/2001/REC-SVG-20010904/DTD/svg10.dtd">
<svg version="1.0" xmlns="http://www.w3.org/2000/svg"
 width="64.000000pt" height="64.000000pt" viewBox="0 0 64.000000 64.000000"
 preserveAspectRatio="xMidYMid meet">

<g transform="translate(0.000000,64.000000) scale(0.100000,-0.100000)"
fill="#000000" stroke="none">
<path d="M535 570 l-59 -60 -31 30 c-102 98 -255 68 -310 -62 -27 -67 -17
-117 41 -194 13 -17 24 -35 24 -40 0 -5 -35 -43 -77 -86 -42 -43 -74 -81 -70
-85 4 -4 43 29 87 72 l80 80 0 -61 c0 -57 2 -62 39 -97 22 -20 45 -37 51 -37
6 0 29 17 51 37 36 35 39 41 39 94 0 49 5 65 36 110 66 99 76 135 55 192 -8
21 -2 31 55 88 35 35 64 67 64 71 0 18 -19 5 -75 -52z m-162 -4 c18 -7 44 -27
59 -43 l28 -29 -120 -119 c-66 -65 -121 -117 -123 -115 -25 30 -67 103 -73
124 -10 42 5 94 39 133 53 60 122 78 190 49z m104 -166 c-3 -21 -23 -64 -44
-96 -22 -33 -43 -69 -47 -81 -5 -17 -15 -23 -37 -23 -28 0 -29 1 -29 50 0 28
-4 50 -10 50 -5 0 -10 -22 -10 -50 0 -48 -1 -50 -29 -50 -62 0 -48 28 76 152
96 96 119 115 126 102 5 -9 7 -33 4 -54z m-112 -229 c-11 -4 -44 -11 -72 -14
-43 -5 -53 -3 -53 8 0 12 15 15 73 14 46 0 65 -3 52 -8z m15 -30 c0 -10 -35
-21 -72 -21 -15 0 -30 -5 -34 -11 -5 -9 8 -10 45 -7 42 4 49 3 40 -8 -16 -19
-84 -18 -103 2 -30 30 -26 32 74 47 45 7 50 7 50 -2z"/>
<path d="M253 538 c-27 -13 -31 -33 -5 -23 9 4 34 9 55 12 20 3 37 10 37 14 0
12 -60 10 -87 -3z"/>
<path d="M370 520 c0 -5 9 -14 20 -20 22 -12 27 -1 8 18 -14 14 -28 16 -28 2z"/>
<path d="M260 371 c0 -13 29 -35 37 -28 7 8 -15 37 -28 37 -5 0 -9 -4 -9 -9z"/>
</g>
</svg>
